<?xml version="1.0" encoding="UTF-8"?>
<svg version="1.1" xmlns="http://www.w3.org/2000/svg" width="4367" height="4134">
    <path
        d="M0 0 C1.13509695 0.28610484 1.13509695 0.28610484 2.29312515 0.57798958 C20.95870441 5.28720336 39.49485784 10.46019224 58.02949142 15.65641403 C62.84944206 17.0064836 67.67096013 18.35093052 72.49243164 19.69555664 C74.4928132 20.25346342 76.49319467 20.81137053 78.49357605 21.36927795 C79.49477163 21.64849657 80.49596722 21.92771519 81.52750206 22.21539497 C84.58941394 23.06955545 87.6511472 23.92435361 90.71284485 24.77928162 C105.46632141 28.89789349 120.22716713 32.98938532 134.9921875 37.06640625 C136.04079956 37.35601793 137.08941162 37.64562962 138.1697998 37.94401741 C147.3731629 40.48580439 156.57676565 43.02672151 165.78118896 45.56466675 C184.10900459 50.61873242 202.43609223 55.676299 220.72621346 60.86548042 C222.20593627 61.28493511 223.68601777 61.70312711 225.166502 62.1198864 C276.01593865 76.44906905 320.24374839 108.42500496 346.51464844 154.73144531 C372.79779027 202.2014335 380.21450681 257.64786592 365.3125 310.06640625 C349.472885 362.4865331 314.3375249 404.10345494 266.50390625 430.18359375 C249.82568033 439.00468149 231.94266138 445.30319426 213.45703125 449.00390625 C212.64314941 449.16761719 211.82926758 449.33132813 210.99072266 449.5 C177.30799211 455.91197309 144.602789 451.36335431 111.83398438 442.87060547 C58.73491649 429.24266367 4.47505011 433.4379067 -43.40917969 461.6953125 C-65.7812236 475.57980209 -86.45360606 493.27414424 -101.54296875 515.00390625 C-102.27386719 516.05191406 -103.00476562 517.09992187 -103.7578125 518.1796875 C-117.2687184 538.38668385 -126.09149603 560.12576786 -133.10546875 583.31640625 C-140.05821735 606.01925881 -150.41909657 626.9251675 -164.54296875 646.00390625 C-164.9822168 646.60009766 -165.42146484 647.19628906 -165.87402344 647.81054688 C-175.10062898 660.2175613 -185.47563186 672.28181151 -197.54296875 682.00390625 C-198.59297187 682.88870151 -199.64239375 683.77418675 -200.69140625 684.66015625 C-215.81799905 697.27359889 -232.700707 706.78976831 -249.8828125 716.30078125 C-256.80713599 720.13680107 -263.67711324 724.06474657 -270.54296875 728.00390625 C-280.36515517 733.63449977 -290.22254532 739.19837063 -300.109375 744.71484375 C-308.54318887 749.42754379 -316.93281343 754.21520729 -325.31466675 759.01937866 C-333.71759707 763.83446598 -342.14811761 768.59737385 -350.60546875 773.31640625 C-358.22803164 777.57600286 -365.84286444 781.84783954 -373.41796875 786.19140625 C-374.20308838 786.63718018 -374.98820801 787.0829541 -375.79711914 787.54223633 C-376.51504639 787.95626709 -377.23297363 788.37029785 -377.97265625 788.796875 C-378.59382324 789.15289795 -379.21499023 789.5089209 -379.85498047 789.87573242 C-381.69224721 791.10367712 -383.11215374 792.31794962 -384.54296875 794.00390625 C-385.95776096 801.24993663 -381.87141492 806.56721984 -378.29296875 812.62890625 C-377.65689697 813.73411621 -377.0208252 814.83932617 -376.36547852 815.97802734 C-375.05923827 818.24543254 -373.74680901 820.5092835 -372.42822266 822.76953125 C-370.23687618 826.52904408 -368.07967749 830.30713024 -365.92700195 834.08886719 C-364.46750933 836.65166233 -363.00186078 839.21085781 -361.53515625 841.76953125 C-356.71434775 850.1908513 -351.9533026 858.64607977 -347.18408203 867.09667969 C-343.929328 872.86246531 -340.67016122 878.62575783 -337.41162109 884.3894043 C-334.73857887 889.11786308 -332.06687715 893.84706709 -329.3984375 898.578125 C-328.3424687 900.44923048 -327.28647896 902.32032414 -326.23046875 904.19140625 C-325.70122803 905.13016602 -325.1719873 906.06892578 -324.62670898 907.03613281 C-321.66437544 912.28190421 -318.67711758 917.51199713 -315.66015625 922.7265625 C-278.22337507 987.46372193 -263.49212287 1046.57885657 -281.31811523 1120.41894531 C-284.89975186 1135.41635421 -286.94137227 1150.24122252 -286.85546875 1165.69140625 C-286.84809692 1167.33423584 -286.84809692 1167.33423584 -286.84057617 1169.01025391 C-286.25432968 1210.7329655 -271.85489599 1250.93225361 -246.54296875 1284.00390625 C-245.84300781 1284.94621094 -245.14304687 1285.88851562 -244.421875 1286.859375 C-233.84181277 1300.49177487 -220.82994038 1313.31848306 -206.54296875 1323.00390625 C-205.86218262 1323.46958008 -205.18139648 1323.93525391 -204.47998047 1324.41503906 C-183.13928207 1338.84849757 -160.52814652 1347.91232661 -135.828125 1354.92578125 C-81.17050674 1370.4641613 -37.16444332 1402.87328968 -9.21484375 1452.9453125 C16.29720536 1500.22359399 20.68936132 1555.04113823 5.9609375 1606.38671875 C-3.43464111 1637.16394569 -20.47062954 1663.84394452 -42.54296875 1687.00390625 C-43.30867188 1687.8340625 -44.074375 1688.66421875 -44.86328125 1689.51953125 C-79.25134028 1725.65613565 -130.39924448 1744.52157501 -179.46875 1746.1328125 C-187.29655865 1746.28433658 -195.05705398 1745.93358126 -202.85546875 1745.25390625 C-203.62318604 1745.19227295 -204.39090332 1745.13063965 -205.18188477 1745.06713867 C-221.03948545 1743.52134765 -236.59237689 1739.38767449 -251.87890625 1735.05859375 C-253.60985334 1734.57452779 -255.34099489 1734.09115674 -257.0723114 1733.6084137 C-260.76367456 1732.57773549 -264.45375955 1731.54264908 -268.14285278 1730.50387573 C-274.04167752 1728.84298966 -279.94329855 1727.19220037 -285.84545898 1725.54321289 C-287.8875638 1724.97257027 -289.92966276 1724.40190666 -291.97175598 1723.83122253 C-293.50482863 1723.40279084 -293.50482863 1723.40279084 -295.06887245 1722.96570396 C-298.20809136 1722.08799275 -301.34702704 1721.20927537 -304.48588562 1720.33027649 C-324.17497484 1714.81774923 -343.88161319 1709.36948311 -363.59104729 1703.93022633 C-375.37786407 1700.67709104 -387.16185198 1697.41374064 -398.94579697 1694.15022087 C-408.18830498 1691.5906101 -417.43115387 1689.03235011 -426.67822266 1686.48925781 C-464.3261393 1676.13411306 -501.01647974 1665.38518045 -536.54296875 1649.00390625 C-537.46964355 1648.57787109 -538.39631836 1648.15183594 -539.35107422 1647.71289062 C-577.29034472 1630.04789213 -612.27659003 1605.27923176 -643.16796875 1577.16015625 C-644.71919569 1575.75180547 -646.28132748 1574.3553479 -647.85546875 1572.97265625 C-657.63795718 1564.3486204 -667.28402404 1555.16981006 -675.69921875 1545.1875 C-677.23865967 1543.36430619 -678.80314357 1541.57365352 -680.38671875 1539.7890625 C-702.09563117 1515.23075214 -720.81599646 1488.09093573 -736.33837891 1459.23242188 C-737.51919409 1457.04788985 -738.72268022 1454.87717603 -739.9296875 1452.70703125 C-782.92905848 1374.43773088 -799.59806542 1278.3298662 -784.85546875 1169.94140625 C-784.75143738 1169.27113403 -784.64740601 1168.60086182 -784.54022217 1167.91027832 C-779.82337916 1138.05999326 -770.547162 1108.77521955 -762.41815186 1079.72314072 C-761.03783825 1074.7861547 -759.66274536 1069.84771483 -758.28710938 1064.90942383 C-755.29599096 1054.17515605 -752.29856358 1043.4426572 -749.29935455 1032.71064758 C-748.1131305 1028.4657217 -746.92738205 1024.22066302 -745.74169922 1019.97558594 C-745.52270556 1019.19155679 -745.30371191 1018.40752764 -745.07808208 1017.59974003 C-743.451729 1011.77685401 -741.82632916 1005.95370223 -740.20138264 1000.13042355 C-739.28760028 996.85638245 -738.37282468 993.58262482 -737.45584106 990.30947876 C-736.46260466 986.76401332 -735.47137696 983.21799169 -734.48046875 979.671875 C-734.19316391 978.64919525 -733.90585907 977.6265155 -733.60984802 976.57284546 C-733.3493013 975.63897003 -733.08875458 974.7050946 -732.8203125 973.74291992 C-732.59593506 972.94182297 -732.37155762 972.14072601 -732.14038086 971.31535339 C-727.56620361 953.61740457 -730.46770937 935.84455312 -739.515625 920.1015625 C-747.93270662 907.24078076 -759.27791873 898.7155522 -773.79150391 894.08496094 C-774.56936563 893.83162868 -775.34722736 893.57829643 -776.14866066 893.31728745 C-785.04798395 890.45786938 -794.04964336 887.97694984 -803.06640625 885.51953125 C-804.9051199 885.01441774 -806.74370944 884.50885226 -808.58218384 884.00286865 C-813.39043817 882.6807473 -818.20023425 881.36432862 -823.01043701 880.04931641 C-827.7851769 878.74309624 -832.55856191 877.4319478 -837.33203125 876.12109375 C-838.73597326 875.73582142 -838.73597326 875.73582142 -840.16827774 875.34276581 C-844.856631 874.05609904 -849.54447515 872.76762598 -854.23138428 871.47570801 C-862.24253129 869.26929766 -870.2543558 867.07008306 -878.28948784 864.95238113 C-881.5439005 864.09297094 -884.79484511 863.22087263 -888.04545975 862.34722137 C-889.53070611 861.95168329 -891.01756052 861.56211752 -892.50620651 861.17957306 C-916.81905818 854.92751406 -936.13356286 842.49431004 -949.54296875 821.00390625 C-955.22004896 810.72767245 -959.04442855 798.77379015 -959.54296875 787.00390625 C-959.58292969 786.25238281 -959.62289063 785.50085937 -959.6640625 784.7265625 C-960.05802197 770.4281513 -956.11774455 756.92780729 -952.265625 743.3203125 C-951.73357223 741.41614051 -951.20229408 739.51175194 -950.67173767 737.60716248 C-949.27490297 732.60098272 -947.86748497 727.59783968 -946.45776367 722.59527588 C-945.06492181 717.64542072 -943.68232603 712.69270762 -942.29882812 707.74023438 C-939.85449465 698.99530798 -937.39726863 690.25406994 -934.93450356 681.51431847 C-933.34809106 675.87975288 -931.77286572 670.24222231 -930.20840931 664.60152149 C-929.22167399 661.04549701 -928.23044324 657.49073349 -927.23867607 653.93610954 C-926.78144288 652.29292888 -926.3262525 650.64917804 -925.87336922 649.00479317 C-911.89862758 598.28408216 -881.08708335 556.90138008 -836.54296875 529.00390625 C-835.64384766 528.43591309 -835.64384766 528.43591309 -834.7265625 527.85644531 C-815.77069689 516.05508837 -794.30638055 508.60497538 -772.54296875 504.00390625 C-771.72570313 503.82746582 -770.9084375 503.65102539 -770.06640625 503.46923828 C-741.60805848 497.62345797 -711.21009211 499.98069134 -683.30004883 507.07885742 C-681.83941104 507.44992583 -680.37871757 507.82077517 -678.91796875 508.19140625 C-678.20031342 508.37377838 -677.48265808 508.55615051 -676.74325562 508.74404907 C-656.31808928 513.8851285 -638.01869678 514.16854742 -619.26123047 503.11962891 C-601.26958814 491.43707627 -594.1066937 473.11264306 -588.60546875 453.31640625 C-588.10790002 451.55129744 -587.60982989 449.78632991 -587.11132812 448.02148438 C-581.23995721 427.15886994 -575.55144625 406.2442296 -569.81282806 385.3448143 C-548.04004158 306.0517796 -524.89337549 230.9951408 -473.54296875 165.00390625 C-472.83785156 164.09640625 -472.13273437 163.18890625 -471.40625 162.25390625 C-459.18136679 146.78062609 -445.95734459 132.34391431 -432.07162476 118.35733032 C-431.02779027 117.3054477 -429.98543987 116.25208982 -428.94473267 115.19711304 C-422.88854193 109.06674538 -416.7212085 103.33155648 -409.97485352 97.94775391 C-407.43804446 95.92003845 -404.99853018 93.80962308 -402.56665039 91.65893555 C-333.5515181 30.84909538 -239.53764182 -4.3145422 -148.54296875 -11.99609375 C-147.44082031 -12.09035645 -146.33867187 -12.18461914 -145.203125 -12.28173828 C-96.59777094 -15.99354059 -47.23384721 -12.01056516 0 0 Z "
        fill="#FFFFFF" transform="translate(2953.54296875,1577.99609375)" />
    <path
        d="M0 0 C5.7232247 1.60323764 11.45035714 3.19239325 17.17706299 4.78314209 C25.20227515 7.01392406 33.226127 9.24948269 41.24804497 11.4920826 C55.84087397 15.57152292 70.43963756 19.62889104 85.04425049 23.66595459 C268.13758075 74.27940423 268.13758075 74.27940423 352.42315674 140.95892334 C352.97068604 141.41621826 353.51821533 141.87351318 354.08233643 142.34466553 C361.08533133 148.20431432 367.8058359 154.17455728 374.18487549 160.72064209 C376.2527743 162.7885409 378.38027349 164.6947077 380.61065674 166.58392334 C383.98872894 169.47359956 386.84624047 172.61374341 389.71612549 176.00189209 C391.3357648 177.85873259 393.02438965 179.56289825 394.79815674 181.27142334 C398.49362238 184.90075089 401.69599086 188.87090852 404.91925049 192.91986084 C406.98027728 195.42138789 409.09260894 197.82733237 411.26300049 200.23236084 C415.2706824 204.72018068 418.9545831 209.38564859 422.54815674 214.20892334 C423.18922363 215.0680835 423.83029053 215.92724365 424.49078369 216.81243896 C442.24754482 240.83360252 457.03470051 266.2907581 470.42315674 292.95892334 C470.86288818 293.82904053 471.30261963 294.69915771 471.75567627 295.59564209 C493.37642958 338.6440279 506.07983067 386.35324466 512.42315674 433.95892334 C512.58686768 435.15404541 512.75057861 436.34916748 512.91925049 437.58050537 C519.12316871 484.84692779 516.82099767 534.29417017 507.42315674 580.95892334 C507.25299042 581.81169861 507.0828241 582.66447388 506.90750122 583.54309082 C502.49716129 605.28152349 496.43640963 626.55463709 490.43587112 647.89495087 C489.03899266 652.86988516 487.65131126 657.84738343 486.26275635 662.824646 C481.84969639 678.63459978 477.41526946 694.43854636 472.97004604 710.23948479 C471.35381654 715.98474674 469.7408665 721.73092275 468.13017368 727.47773933 C466.88593489 731.91484206 465.6316321 736.34902407 464.37506104 740.78265381 C463.73583473 743.05746898 463.09689957 745.332366 462.45831299 747.60736084 C462.17615936 748.59393677 461.89400574 749.5805127 461.603302 750.59698486 C455.98606874 770.72545834 455.9549057 788.60551202 466.20050049 807.22845459 C477.74524818 827.0821899 495.28861485 833.96728205 516.55987549 839.74407959 C518.43339814 840.26172947 520.30691984 840.77938281 522.18039989 841.29718685 C524.14563098 841.83912449 526.11169217 842.3779485 528.07800293 842.91595459 C532.16413674 844.03460261 536.24679632 845.1655802 540.32891846 846.29876709 C551.59690646 849.4249477 562.8684018 852.53770322 574.14997864 855.61454773 C577.92398194 856.64742977 581.69414039 857.69381769 585.46334839 858.74404907 C587.14790907 859.20994399 588.83419259 859.66966724 590.52236938 860.12228394 C619.00774376 867.76328307 645.84964397 883.02941985 661.42315674 908.95892334 C662.07542236 909.99017334 662.72768799 911.02142334 663.39971924 912.08392334 C678.59234302 936.74787546 683.11669659 967.2602937 676.86746216 995.46713257 C675.24657692 1002.13035577 673.3955981 1008.73071915 671.54815674 1015.33392334 C670.96667523 1017.44050908 670.38587562 1019.54728316 669.8057251 1021.65423584 C668.31893528 1027.03920296 666.81647554 1032.41965306 665.30822754 1037.79864502 C664.44705981 1040.87357385 663.59038805 1043.94971829 662.73516846 1047.02630615 C661.4122995 1051.78171388 660.08025957 1056.53444832 658.73974609 1061.28491211 C658.24565285 1063.03697356 657.7532793 1064.78952109 657.26281738 1066.54260254 C647.40665319 1101.68438404 631.7869995 1133.32314746 606.42315674 1159.95892334 C605.86918213 1160.54544678 605.31520752 1161.13197021 604.7444458 1161.73626709 C568.75411466 1199.61280404 517.62442213 1224.08676214 465.10601807 1226.08514404 C441.83465979 1226.59487757 420.09335478 1224.43896784 397.43829346 1218.94085693 C379.76657555 1214.83049253 363.1091689 1216.85543979 347.39190674 1225.97845459 C329.31292857 1238.03903608 321.79098929 1255.0590281 316.35675049 1275.28314209 C315.88750597 1276.99177418 315.4170491 1278.70007371 314.94548035 1280.4080658 C313.94423626 1284.04189108 312.95011405 1287.67755819 311.96142578 1291.31481934 C310.42292505 1296.96998941 308.86141518 1302.61863194 307.29473877 1308.26605225 C305.12468897 1316.09259367 302.95917084 1323.92035849 300.80010986 1331.74993896 C300.52708353 1332.73993959 300.2540572 1333.72994022 299.97275734 1334.74994087 C298.59207419 1339.75701119 297.212079 1344.76427064 295.83258057 1349.77166748 C289.92475538 1371.2127667 283.9825356 1392.64314778 277.89190674 1414.03314209 C277.64635103 1414.89852915 277.40079533 1415.76391621 277.14779854 1416.65552711 C255.181298 1493.99928096 214.83949932 1561.42397928 158.17315674 1618.33392334 C157.42856201 1619.08319092 156.68396729 1619.8324585 155.91680908 1620.60443115 C151.24703197 1625.2607148 146.42843771 1629.66756584 141.42315674 1633.95892334 C140.32843877 1634.92006154 139.23464099 1635.88224917 138.14190674 1636.84564209 C129.56000854 1644.34241193 120.64288569 1651.26634127 111.42315674 1657.95892334 C110.7438208 1658.45392334 110.06448486 1658.94892334 109.36456299 1659.45892334 C93.46465619 1671.00063262 76.96412322 1681.44238247 59.66046143 1690.74993896 C57.44991017 1691.94446645 55.25273197 1693.16113839 53.05596924 1694.38079834 C1.42594253 1722.69531573 -58.88973872 1739.57767929 -117.57684326 1743.95892334 C-119.25677368 1744.08702393 -119.25677368 1744.08702393 -120.97064209 1744.2177124 C-168.85123303 1747.56009931 -216.92548968 1743.71375399 -263.44793701 1731.87298584 C-264.21121685 1731.68045227 -264.97449669 1731.4879187 -265.76090622 1731.28955078 C-282.68001121 1727.01955317 -299.48779873 1722.36653115 -316.28367996 1717.63881302 C-320.47786819 1716.45957699 -324.67376657 1715.28645727 -328.86956787 1714.11297607 C-334.2120384 1712.61854669 -339.55443249 1711.12385044 -344.89622498 1709.6269989 C-363.06670637 1704.53597855 -381.2482993 1699.48516557 -399.43125153 1694.43889713 C-406.16703222 1692.56942382 -412.90212159 1690.69747568 -419.63690186 1688.82440186 C-435.26556381 1684.47863688 -450.89445154 1680.13477376 -466.54266167 1675.8598423 C-470.85566388 1674.68063754 -475.16712273 1673.49579357 -479.47891235 1672.31216431 C-482.6589491 1671.4423465 -485.84149416 1670.58225966 -489.02435303 1669.72283936 C-506.25699638 1665.02205557 -523.6257568 1659.75578979 -539.38934326 1651.20892334 C-540.33454834 1650.70578613 -541.27975342 1650.20264893 -542.25360107 1649.68426514 C-562.35226482 1638.74343289 -582.07260408 1623.70598022 -596.57684326 1605.95892334 C-597.20429443 1605.21593994 -597.20429443 1605.21593994 -597.84442139 1604.45794678 C-632.62501796 1563.26785223 -648.74042598 1511.53768216 -644.82733154 1457.8895874 C-641.88378298 1423.45064303 -630.08205602 1388.93502756 -609.57684326 1360.95892334 C-608.80856201 1359.90704834 -608.04028076 1358.85517334 -607.24871826 1357.77142334 C-601.49998582 1350.04360034 -595.22315267 1342.92172367 -588.57684326 1335.95892334 C-587.77633545 1335.10556396 -586.97582764 1334.25220459 -586.15106201 1333.37298584 C-579.51570829 1326.48785612 -572.26600388 1320.61041518 -564.57684326 1314.95892334 C-564.00901123 1314.54142822 -563.4411792 1314.12393311 -562.85614014 1313.69378662 C-520.78630851 1283.25232694 -467.79678111 1271.38236335 -416.62762451 1278.91204834 C-403.59007206 1281.044269 -390.81946497 1284.5042655 -378.09613037 1288.01141357 C-327.61864231 1301.75782195 -275.01174745 1293.25996694 -229.69012451 1267.79876709 C-216.94935262 1260.46553886 -205.72243306 1251.57413504 -195.10809326 1241.42279053 C-194.07115986 1240.43148748 -193.02932557 1239.44529001 -191.98309326 1238.46380615 C-179.32679208 1226.56049404 -169.19924302 1213.03000864 -160.57684326 1197.95892334 C-159.92199951 1196.82454834 -159.26715576 1195.69017334 -158.59246826 1194.52142334 C-150.34935449 1179.88454827 -144.91149493 1164.37641143 -140.07684326 1148.33392334 C-136.67896406 1137.08982126 -132.85126465 1126.45282423 -127.57684326 1115.95892334 C-127.21590576 1115.23285889 -126.85496826 1114.50679443 -126.48309326 1113.75872803 C-117.74807563 1096.32660516 -106.8781793 1080.55579015 -93.65106201 1066.22064209 C-91.7756274 1064.17567667 -89.98651793 1062.08272859 -88.20184326 1059.95892334 C-73.84490383 1043.61159003 -55.30876167 1031.64189048 -36.57684326 1020.95892334 C-35.66628174 1020.43830322 -34.75572021 1019.91768311 -33.81756592 1019.38128662 C-28.05159988 1016.09173549 -22.26837439 1012.83358389 -16.47821045 1009.58685303 C-11.77687408 1006.94897765 -7.08277599 1004.29832904 -2.38934326 1001.64642334 C-0.98374146 1000.85268311 -0.98374146 1000.85268311 0.45025635 1000.04290771 C8.67999589 995.39050211 16.8843591 990.69405753 25.08828735 985.99636841 C33.34158752 981.27213928 41.61896499 976.59326647 49.92315674 971.95892334 C62.3966134 964.99597328 74.80296591 957.92014016 87.19122314 950.80706787 C90.22383365 949.07290398 93.26491784 947.35488249 96.30987549 945.64251709 C98.03514798 944.66467381 99.76040925 943.68681074 101.48565674 942.70892334 C102.25893311 942.27942383 103.03220947 941.84992432 103.82891846 941.40740967 C109.03493919 938.59519601 109.03493919 938.59519601 112.42315674 933.95892334 C112.6112203 926.94683912 108.66574536 921.70194662 105.11065674 915.89642334 C103.82023638 913.7404611 102.53252744 911.58287393 101.24737549 909.42376709 C100.60074951 908.33950439 99.95412354 907.2552417 99.28790283 906.13812256 C96.55133089 901.47255045 93.9800273 896.72465201 91.42315674 891.95892334 C87.24277097 884.19794933 82.89506486 876.55555132 78.42315674 868.95892334 C73.3876424 860.40268208 68.53898557 851.76885612 63.81939697 843.03485107 C59.01771036 834.16412769 54.00352918 825.42164469 48.97930908 816.67572021 C44.59478596 809.02103347 40.26664856 801.33427333 35.9397583 793.64691162 C34.53207936 791.15197518 33.11549826 788.66233055 31.69659424 786.17376709 C-0.16237701 730.04563097 -7.16379271 670.3612103 8.96051025 608.12493896 C21.34550512 560.0334969 12.41999643 508.72438639 -11.80535889 465.78118896 C-14.21567944 461.70997526 -16.8354603 457.8166172 -19.57684326 453.95892334 C-20.28196045 452.96247803 -20.98707764 451.96603271 -21.71356201 450.93939209 C-51.23328847 410.50213663 -90.45588135 387.76044812 -137.91400146 373.92767334 C-169.19470694 364.80962076 -197.22284844 351.25508361 -221.30340576 329.04486084 C-223.41578566 327.10669784 -225.57682398 325.24869063 -227.76434326 323.39642334 C-231.77369948 319.88126212 -235.18597865 316.06708623 -238.57684326 311.95892334 C-239.00481201 311.45393311 -239.43278076 310.94894287 -239.87371826 310.4286499 C-274.68502729 269.28149136 -289.87895244 217.06676806 -286.35858154 163.64691162 C-285.13145526 150.13558267 -282.40710468 136.96238329 -278.57684326 123.95892334 C-278.37252686 123.26202393 -278.16821045 122.56512451 -277.95770264 121.84710693 C-270.29663552 96.53518439 -256.98651456 72.81484407 -239.57684326 52.95892334 C-238.84981201 52.12232178 -238.12278076 51.28572021 -237.37371826 50.42376709 C-208.22287041 17.45069268 -170.48018711 -3.61522301 -127.57684326 -13.04107666 C-126.419104 -13.3079126 -126.419104 -13.3079126 -125.23797607 -13.58013916 C-82.70422299 -23.0279186 -40.74038462 -11.43099676 0 0 Z "
        fill="#FFFFFF" transform="translate(1685.5768432617188,826.0410766601563)" />
</svg>